<svg xmlns="http://www.w3.org/2000/svg" width="800" height="800" fill="none" viewBox="-3.84 -3.84 39.68 39.68"><rect width="39.68" height="39.68" x="-3.84" y="-3.84" fill="#2a5fd7" rx="19.84"/><g stroke="#fff" stroke-linecap="round" stroke-linejoin="round" stroke-width="2.56">{&quot; &quot;}<path fill="#DD0031" d="M16 2 3 7l2 17 11 6 11-6 2-17z"/>{&quot; &quot;}<path fill="#C3002F" d="M16 2v28l11-6 2-17z"/>{&quot; &quot;}<path fill="#fff" d="m16 5.094-8.127 18.27h3.03l1.634-4.088h6.898l1.634 4.088h3.03zm2.374 11.662h-4.748L16 11.03z"/>{&quot; &quot;}</g>{&quot; &quot;}<path fill="#DD0031" d="M16 2 3 7l2 17 11 6 11-6 2-17z"/>{&quot; &quot;}<path fill="#C3002F" d="M16 2v28l11-6 2-17z"/>{&quot; &quot;}<path fill="#fff" d="m16 5.094-8.127 18.27h3.03l1.634-4.088h6.898l1.634 4.088h3.03zm2.374 11.662h-4.748L16 11.03z"/>{&quot; &quot;}</svg>