<svg xmlns="http://www.w3.org/2000/svg" width="800" height="800" fill="none" viewBox="-6.4 -6.4 44.8 44.8"><rect width="44.8" height="44.8" x="-6.4" y="-6.4" fill="#2a5fd7" rx="22.4"/><g stroke="#fff" stroke-linecap="round" stroke-linejoin="round" stroke-width="2.56">{&quot; &quot;}<path fill="#1172B8" d="M6 28 4 3h24l-2 25-10 3z"/>{&quot; &quot;}<path fill="#3AD" d="M26 5H16v24.5l8-2.5z"/>{&quot; &quot;}<path fill="#fff" d="M19.5 17.5h-10L9 14l8-2.5H9l-.5-3H24l-.5 3.5-6.5 2.5h6L22 24l-6 2-6-2-.5-5h3l.5 2.5 3 1 3-1z"/>{&quot; &quot;}</g>{&quot; &quot;}<path fill="#1172B8" d="M6 28 4 3h24l-2 25-10 3z"/>{&quot; &quot;}<path fill="#3AD" d="M26 5H16v24.5l8-2.5z"/>{&quot; &quot;}<path fill="#fff" d="M19.5 17.5h-10L9 14l8-2.5H9l-.5-3H24l-.5 3.5-6.5 2.5h6L22 24l-6 2-6-2-.5-5h3l.5 2.5 3 1 3-1z"/>{&quot; &quot;}</svg>