<svg xmlns="http://www.w3.org/2000/svg" width="800" height="800" preserveAspectRatio="xMidYMid" viewBox="-51.2 -51.2 358.4 358.4"><rect width="358.4" height="358.4" x="-51.2" y="-51.2" fill="#2a5fd7" rx="179.2"/><g fill="#8A4182" stroke="#fff" stroke-linecap="round" stroke-linejoin="round" stroke-width="15.36" transform="matrix(1 0 0 -1 0 255)">{&quot; &quot;}{&quot; &quot;}<path d="M118.267 149.666h19.795l4.918 6.733v52.727h-29.627v-52.733z">{&quot; &quot;}</path>{&quot; &quot;}<path d="m105.509 126.149 6.115 18.717-4.919 6.73-50.434 16.294-9.154-28.016 50.44-16.296z">{&quot; &quot;}</path>{&quot; &quot;}<path d="m124.06 106.813-16.012 11.57-7.96-2.572-31.168-42.66 23.968-17.313 31.172 42.66z">{&quot; &quot;}</path>{&quot; &quot;}<path d="m148.285 118.386-16.016-11.57.004-8.32 31.169-42.658 23.969 17.314-31.175 42.663z">{&quot; &quot;}</path>{&quot; &quot;}<path d="m144.702 144.87 6.118-18.72 7.958-2.569 50.435 16.293-9.157 28.018-50.436-16.297z">{&quot; &quot;}</path>{&quot; &quot;}<path d="M128.17 254.894C57.71 254.894.384 197.9.384 127.848.383 57.77 57.71.761 128.171.761c70.454 0 127.774 57.009 127.774 127.087 0 70.053-57.32 127.046-127.774 127.046m0-25.725c56.27 0 101.9-45.357 101.9-101.32 0-55.983-45.63-101.36-101.9-101.36-56.287 0-101.912 45.377-101.912 101.36 0 55.963 45.625 101.32 101.913 101.32">{&quot; &quot;}</path>{&quot; &quot;}<path d="m205.565 99.609-38.338 12.387 2.535 7.765 38.338-12.387z">{&quot; &quot;}</path>{&quot; &quot;}<path d="m156.67 160.81-6.645 4.798 23.693 32.429 6.644-4.799z">{&quot; &quot;}</path>{&quot; &quot;}<path d="m100.072 161.105-23.69 32.43 6.644 4.798 23.69-32.428z">{&quot; &quot;}</path>{&quot; &quot;}<path d="m50.608 100.093-2.536 7.765 38.334 12.382 2.537-7.765z">{&quot; &quot;}</path>{&quot; &quot;}<path d="M123.807 46.841h8.211v40.085h-8.21z">{&quot; &quot;}</path>{&quot; &quot;}{&quot; &quot;}</g><g fill="#8A4182" transform="matrix(1 0 0 -1 0 255)">{&quot; &quot;}{&quot; &quot;}<path d="M118.267 149.666h19.795l4.918 6.733v52.727h-29.627v-52.733z">{&quot; &quot;}</path>{&quot; &quot;}<path d="m105.509 126.149 6.115 18.717-4.919 6.73-50.434 16.294-9.154-28.016 50.44-16.296z">{&quot; &quot;}</path>{&quot; &quot;}<path d="m124.06 106.813-16.012 11.57-7.96-2.572-31.168-42.66 23.968-17.313 31.172 42.66z">{&quot; &quot;}</path>{&quot; &quot;}<path d="m148.285 118.386-16.016-11.57.004-8.32 31.169-42.658 23.969 17.314-31.175 42.663z">{&quot; &quot;}</path>{&quot; &quot;}<path d="m144.702 144.87 6.118-18.72 7.958-2.569 50.435 16.293-9.157 28.018-50.436-16.297z">{&quot; &quot;}</path>{&quot; &quot;}<path d="M128.17 254.894C57.71 254.894.384 197.9.384 127.848.383 57.77 57.71.761 128.171.761c70.454 0 127.774 57.009 127.774 127.087 0 70.053-57.32 127.046-127.774 127.046m0-25.725c56.27 0 101.9-45.357 101.9-101.32 0-55.983-45.63-101.36-101.9-101.36-56.287 0-101.912 45.377-101.912 101.36 0 55.963 45.625 101.32 101.913 101.32">{&quot; &quot;}</path>{&quot; &quot;}<path d="m205.565 99.609-38.338 12.387 2.535 7.765 38.338-12.387z">{&quot; &quot;}</path>{&quot; &quot;}<path d="m156.67 160.81-6.645 4.798 23.693 32.429 6.644-4.799z">{&quot; &quot;}</path>{&quot; &quot;}<path d="m100.072 161.105-23.69 32.43 6.644 4.798 23.69-32.428z">{&quot; &quot;}</path>{&quot; &quot;}<path d="m50.608 100.093-2.536 7.765 38.334 12.382 2.537-7.765z">{&quot; &quot;}</path>{&quot; &quot;}<path d="M123.807 46.841h8.211v40.085h-8.21z">{&quot; &quot;}</path>{&quot; &quot;}{&quot; &quot;}</g></svg>